# xmcd
#
# Track frame offsets:
#	150
#	12935
#	35467
#	47722
#	60732
#	81095
#	99560
#	122227
#	139132
#	158005
#	178010
#	190995
#	206387
#	220852
#	234867
#
# Disc length: 3363
#
# Revision: 2
# Processed by: cddbd v1.5.1PL0 Copyright (c) Steve Scherf et al.
# Submitted via: audiograbber 1.80.04
# Normalized: r1:DSETVAR1
#
DISCID=c80d210f
DTITLE=Various Artist - Blus Story #17
DYEAR=1998
DGENRE=Blues
TTITLE0=Etta James - All I Could Do Is Cry
TTITLE1=Koko Taylor - I'd Rather Go Blind
TTITLE2=Aretha Franklin - A Natural Woman
TTITLE3=Alberta Hunter - Nobody Knows The Way I Feel Dis Mornin
TTITLE4=Katie Webster - I'm Bad
TTITLE5=Saffire - Bitch With A Bad Attitude
TTITLE6=Zora Young - Queen Bee
TTITLE7=Joanna Connor - Big Girl Blues
TTITLE8=Deborah Coleman - Roll With Me
TTITLE9=Zakiya Hooker - Stones In My Passway
TTITLE10=Ruth Brown - Mama He Treats Your Daughter Mean
TTITLE11=Bessie Smith - Down Hearted Blues
TTITLE12=Billie Holiday - Fine And Mellow
TTITLE13=Lavern Baker - Tweedlee Dee
TTITLE14=Marva Wright - What's Wrong
EXTD=
EXTT0=
EXTT1=
EXTT2=
EXTT3=
EXTT4=
EXTT5=
EXTT6=
EXTT7=
EXTT8=
EXTT9=
EXTT10=
EXTT11=
EXTT12=
EXTT13=
EXTT14=
PLAYORDER=
